/* XPM */
static char * icon_xpm[] = {
"64 64 6 1",
" 	c None",
".	c #000000",
"+	c #FFFFFF",
"@	c #1C1C1C",
"#	c #272727",
"$	c #262626",
"                                                                ",
"                                                                ",
"                                                                ",
"                            .........                           ",
"                         .........+.....                        ",
"                       ...+++++++++++++...                      ",
"                      ...+++++++++++++++...                     ",
"                    ...++++++++++++++++++...                    ",
"                  ....+++++++++++++++++++++...                  ",
"                  ..++++++++++++++++++++++++...                 ",
"                 ..++++++++++++++++++++++++++..                 ",
"                 ..+++++++++++++++++++++++++++..                ",
"                ..+++++++++++++++++++++++++++++..               ",
"               ..+++++++++++++++++++++++++++++++.               ",
"              ...+++++++++++++++++++++++++++++++..              ",
"              ..++++++++++++++++++++++++++++++++..              ",
"             ...+++++++++++++++++++++++++++++++++..             ",
"             ..++++++++++++++++++++++++++++++++++..             ",
"             .++++++++++++++++++++++++++++++++++++.             ",
"             .++++++++++++++++++++++++++++++++++++.             ",
"             .++++++++++++++++++++++++++++++++++++.             ",
"             .++++++++++++++++++++++++++++++++++++.             ",
"             .++++++++++++++++++++++++++++++++++++.             ",
"            ..++++++++++++++++++++++++++++++++++++.             ",
"            ..+++++++......@++++++++........++++++..            ",
"            .+++++++.......@@++++++....+++....++++..            ",
"            .++++++...+++++@@@+++++..++++++...+++++.            ",
"            .++++++..+++++++@@@++++..+++++++...++++.            ",
"            .++++++..++++++++@@++++.++++++++...++++.            ",
"            .++++++.++++++##+@@++++..+++++##+..++++..           ",
"            .++++++.+++++###+..++++..++++###+..++++..           ",
"            .++++++.+++++###+..++++..++++###+..+++++.           ",
"            .++++++..+++++++...++++..++++++++..+++++.           ",
"            .++++++..+++++++..+++++..+++++++...+++++.           ",
"            .++++++....++++...+++++...++++++..++++++.           ",
"            .+++++++..........++++++...+++....++++++.           ",
"            .++++++++........+++++++.........+++++++.           ",
"            ..+++++++++++++++++++++++++....+++++++++.           ",
"            ..++++++++++++++++++++++++++++++++++++++.           ",
"            ..++++++++++++++++++++++++++++++++++++++.           ",
"            ..+++++++++++++++++++++++++++++++++++++..           ",
"             .+++++++++++++++++++++++++++++++++++++..           ",
"             .+++++++++++++++++++++++++++++++++++++..           ",
"             .+++++++++++++++++++++++++++++++++++++..           ",
"             ..++++++++++++++++++++++++++++++++++++.            ",
"              .+++++++++++++++++++++++++++++++++++..            ",
"              .+++++++++++++++++++++++++++++++++++..            ",
"              ..++++++++++++++++++++++++++++++++++.             ",
"              ..+++++++++++++++++++++++++++++++++..             ",
"               ..++++++++++++++++++++++++++++++++..             ",
"                ..++++++++++++++++++++++++++++++..              ",
"                ...+++++++++++++++++++++++++++++..              ",
"                 ...+++++++++++++++++++++++++++..               ",
"                  ...+++++++++++++++++++++++++...               ",
"                   ...+++++++++++++++++++++++..                 ",
"                     ...+++++++++++++++++++...                  ",
"                     ...$$$+++++++++++++$$$..                   ",
"                      ..+$$.$$$++++++$$$.$$..                   ",
"                      ..+++++$$$$$$$$$$$+++..                   ",
"                      ..+++++++++++++++++++..                   ",
"                     ...+++++++++++++++++++..                   ",
"                 .......+++++++++++++++++++.......              ",
"         ............+++++++++++++++++++++++............        ",
"       ...........+++++++++++++++++++++++++++++++............   "};
